<svg xmlns="http://www.w3.org/2000/svg" width="180" height="60" viewBox="0 0 180 60" fill="none">
  <path d="M30 15C42.1503 15 52 24.8497 52 37C52 49.1503 42.1503 59 30 59C17.8497 59 8 49.1503 8 37C8 24.8497 17.8497 15 30 15Z" fill="#0F172A" stroke="#22C55E" stroke-width="2"/>
  <path d="M30 21C38.8366 21 46 28.1634 46 37C46 45.8366 38.8366 53 30 53C21.1634 53 14 45.8366 14 37C14 28.1634 21.1634 21 30 21Z" fill="#0F172A" stroke="#22C55E" stroke-width="2"/>
  <path d="M30.5 27L40 37L30.5 47H29.5L20 37L29.5 27H30.5Z" fill="#22C55E"/>
  <path d="M62 24H65.84C67.3067 24 68.5067 24.32 69.44 24.96C70.3733 25.6 71.04 26.4933 71.44 27.64C71.8667 28.7867 72.08 30.1333 72.08 31.68C72.08 33.2267 71.8667 34.5733 71.44 35.72C71.04 36.8667 70.3733 37.76 69.44 38.4C68.5067 39.04 67.3067 39.36 65.84 39.36H62V24ZM65.68 36.96C67.04 36.96 68.08 36.4933 68.8 35.56C69.52 34.6267 69.88 33.3067 69.88 31.6C69.88 29.8933 69.52 28.5733 68.8 27.64C68.08 26.7067 67.04 26.24 65.68 26.24H64.16V36.96H65.68Z" fill="#22C55E"/>
  <path d="M79.6203 39.6C78.3269 39.6 77.3003 39.3067 76.5403 38.72C75.7803 38.1333 75.2469 37.3333 74.9403 36.32C74.6469 35.3067 74.5003 34.1733 74.5003 32.92C74.5003 31.6667 74.6469 30.5333 74.9403 29.52C75.2469 28.5067 75.7803 27.7067 76.5403 27.12C77.3003 26.5333 78.3269 26.24 79.6203 26.24C80.9136 26.24 81.9403 26.5333 82.7003 27.12C83.4603 27.7067 83.9803 28.5067 84.2603 29.52C84.5536 30.5333 84.7003 31.6667 84.7003 32.92C84.7003 34.1733 84.5536 35.3067 84.2603 36.32C83.9803 37.3333 83.4603 38.1333 82.7003 38.72C81.9403 39.3067 80.9136 39.6 79.6203 39.6ZM79.6203 37.52C80.4736 37.52 81.1136 37.2 81.5403 36.56C81.9669 35.8933 82.1803 35.0667 82.1803 34.08V31.76C82.1803 30.7733 81.9669 29.9467 81.5403 29.28C81.1136 28.6133 80.4736 28.28 79.6203 28.28C78.7669 28.28 78.1269 28.6133 77.7003 29.28C77.2736 29.9467 77.0603 30.7733 77.0603 31.76V34.08C77.0603 35.0667 77.2736 35.8933 77.7003 36.56C78.1269 37.2 78.7669 37.52 79.6203 37.52Z" fill="#22C55E"/>
  <path d="M91.6891 39.36L88.8091 32.24V39.36H86.8091V26.24H89.0091L92.0891 33.8V26.24H94.0491V39.36H91.6891Z" fill="#22C55E"/>
  <path d="M99.8594 39.36V28.32H97.0594V26.24H104.819V28.32H101.979V39.36H99.8594Z" fill="#22C55E"/>
  <path d="M106.27 39.36V26.24H112.43V28.28H108.35V31.64H111.91V33.68H108.35V37.32H112.43V39.36H106.27Z" fill="#22C55E"/>
  <path d="M114.196 39.36V26.24H118.956C119.969 26.24 120.823 26.44 121.516 26.84C122.21 27.24 122.73 27.7733 123.076 28.44C123.436 29.1067 123.616 29.84 123.616 30.64C123.616 31.5867 123.356 32.4 122.836 33.08C122.33 33.76 121.596 34.2133 120.636 34.44L123.816 39.36H121.236L118.316 34.8H116.236V39.36H114.196ZM116.236 32.96H118.676C119.476 32.96 120.076 32.7467 120.476 32.32C120.876 31.8933 121.076 31.3333 121.076 30.64C121.076 29.9467 120.876 29.4 120.476 29C120.076 28.5867 119.476 28.38 118.676 28.38H116.236V32.96Z" fill="#22C55E"/>
  <path d="M137.307 24V39.36H135.227V30.6L132.667 39.36H130.907L128.307 30.6V39.36H126.267V24H129.147L132.787 35.16L136.427 24H137.307Z" fill="#22C55E"/>
  <path d="M142.887 39.6C141.967 39.6 141.167 39.4667 140.487 39.2C139.82 38.92 139.3 38.5467 138.927 38.08C138.553 37.6 138.347 37.08 138.307 36.52H140.507C140.547 36.9733 140.767 37.3733 141.167 37.72C141.567 38.0533 142.127 38.22 142.847 38.22C143.513 38.22 144.033 38.1 144.407 37.86C144.78 37.6067 144.967 37.28 144.967 36.88C144.967 36.5333 144.847 36.26 144.607 36.06C144.38 35.86 144.087 35.7 143.727 35.58C143.367 35.46 142.853 35.3133 142.187 35.14C141.333 34.9267 140.633 34.7133 140.087 34.5C139.553 34.2867 139.1 33.9533 138.727 33.5C138.353 33.0467 138.167 32.44 138.167 31.68C138.167 30.7467 138.527 29.96 139.247 29.32C139.967 28.68 140.98 28.36 142.287 28.36C143.553 28.36 144.567 28.6867 145.327 29.34C146.087 29.98 146.507 30.8267 146.587 31.88H144.327C144.273 31.4533 144.067 31.0933 143.707 30.8C143.347 30.5067 142.853 30.36 142.227 30.36C141.64 30.36 141.173 30.48 140.827 30.72C140.48 30.96 140.307 31.28 140.307 31.68C140.307 32.0133 140.427 32.28 140.667 32.48C140.907 32.6667 141.207 32.82 141.567 32.94C141.927 33.06 142.433 33.2067 143.087 33.38C143.913 33.5933 144.6 33.8067 145.147 34.02C145.693 34.2333 146.153 34.5667 146.527 35.02C146.913 35.46 147.107 36.0667 147.107 36.84C147.107 37.4 146.953 37.9267 146.647 38.42C146.34 38.9133 145.867 39.3133 145.227 39.62C144.6 39.94 143.82 40.1 142.887 40.1V39.6Z" fill="#22C55E"/>
  <path d="M150.845 39.36V28.32H148.045V26.24H155.805V28.32H152.965V39.36H150.845Z" fill="#22C55E"/>
</svg> 